<?xml version="1.0" encoding="UTF-8"?>
<!DOCTYPE svg PUBLIC "-//W3C//DTD SVG 1.1//EN" "http://www.w3.org/Graphics/SVG/1.1/DTD/svg11.dtd">
<!-- Creator: CorelDRAW X7 -->
<svg xmlns="http://www.w3.org/2000/svg" xml:space="preserve" width="83.555mm" height="32.279mm" version="1.1" style="shape-rendering:geometricPrecision; text-rendering:geometricPrecision; image-rendering:optimizeQuality; fill-rule:evenodd; clip-rule:evenodd"
viewBox="0 0 8356 3228"
 xmlns:xlink="http://www.w3.org/1999/xlink">
 <defs>
  <style type="text/css">
   <![CDATA[
    .str0 {stroke:white;stroke-width:20}
    .fil11 {fill:none}
    .fil1 {fill:#282829}
    .fil9 {fill:#3B393A}
    .fil6 {fill:#5AA5DA}
    .fil7 {fill:#66BD50}
    .fil8 {fill:#E8E8E8}
    .fil4 {fill:#ED3237}
    .fil3 {fill:#F8EC29}
    .fil5 {fill:#FCE243}
    .fil0 {fill:#FDFDFD}
    .fil2 {fill:red}
    .fil12 {fill:white}
    .fil10 {fill:white;fill-rule:nonzero}
   ]]>
  </style>
 </defs>
 <g id="Layer_x0020_1">
  <metadata id="CorelCorpID_0Corel-Layer"/>
  <g id="_634682352">
   <g>
    <path class="fil0" d="M2242 1407l-348 0 -225 0 -243 1 -239 0 -224 -1 -271 0 -215 0c0,401 0,802 0,1202 0,54 -3,97 8,140 11,42 28,70 54,99l17 17c60,55 109,66 200,66l1203 0c77,0 122,-5 179,-45 107,-74 104,-164 104,-272 0,-403 0,-805 0,-1207z"/>
    <path class="fil1" d="M600 1197c44,-16 60,-30 118,-31 48,-1 101,-1 149,0 46,-1 223,-8 251,3l15 -7c12,-19 139,-142 173,-175 21,-21 35,-40 57,-61l353 -350c43,-42 81,-74 85,-152 6,-132 -142,-226 -261,-164 -50,26 -187,180 -236,230l-149 143c-92,86 -229,234 -321,326 -33,33 -224,219 -234,238z"/>
    <path class="fil2" d="M1060 2558l590 -376c33,-21 182,-112 197,-127l-588 -376c-30,-18 -183,-120 -200,-124l1 1003z"/>
    <path class="fil0" d="M1378 425c4,18 144,300 157,316l166 -163c23,-24 59,-52 75,-90 59,-142 -77,-284 -223,-223 -40,16 -144,126 -175,160z"/>
    <polygon class="fil0" points="955,848 1121,1156 1324,955 1164,641 "/>
    <polygon class="fil0" points="477,3003 2251,3003 2251,2965 477,2965 "/>
    <path class="fil3" d="M692 1407l271 0 155 -238c-28,-11 -205,-4 -251,-3 -12,23 -28,40 -44,62 -15,20 -29,39 -43,59 -30,40 -62,78 -88,120z"/>
    <path class="fil4" d="M600 1197c-34,14 -65,48 -85,79 -21,34 -38,76 -38,131l215 0c26,-42 58,-80 88,-120 14,-20 28,-39 43,-59 16,-22 32,-39 44,-62 -48,-1 -101,-1 -149,0 -58,1 -74,15 -118,31z"/>
    <path class="fil5" d="M1555 1199c-1,0 -2,0 -2,2 0,1 -2,1 -2,2 -21,25 -125,193 -126,199l1 6 243 -1 153 -241 -232 -1c-24,7 -15,19 -35,34z"/>
    <path class="fil6" d="M1118 1169l-155 238 224 1c12,-23 28,-43 41,-62 15,-22 27,-39 42,-60 14,-19 79,-107 83,-124l-220 0 -15 7z"/>
    <path class="fil7" d="M1894 1407l348 0c0,-69 -28,-126 -62,-162 -19,-19 -39,-37 -63,-51 -20,-11 -60,-26 -86,-28l-137 241z"/>
    <polygon class="fil4" points="1669,1407 1894,1407 2031,1166 1822,1166 "/>
    <path class="fil0" d="M1425 1402c1,-6 105,-174 126,-199 0,-1 2,-1 2,-2 0,-2 1,-2 2,-2 7,-13 10,-15 16,-29l-210 0 -119 172c-14,21 -30,40 -41,61l224 -1z"/>
    <path class="fil8" d="M1060 2558l-1 -1003c-20,9 -15,7 -21,28l-4 12c-6,25 -5,893 1,918 3,10 6,30 13,37 7,7 2,4 12,8z"/>
    <path class="fil9" d="M1187 1408l239 0 -1 -6 -224 1c11,-21 27,-40 41,-61l119 -172 210 0c-6,14 -9,16 -16,29 20,-15 11,-27 35,-34 -22,-11 -196,-3 -237,-3 -4,17 -69,105 -83,124 -15,21 -27,38 -42,60 -13,19 -29,39 -41,62z"/>
   </g>
   <path class="fil10" d="M4242 1635c86,0 158,72 158,162l0 372c0,46 40,84 85,84 46,0 83,-38 83,-84l0 -372c0,-182 -146,-330 -326,-330 -99,0 -189,41 -247,108 -60,-67 -148,-108 -247,-108 -60,0 -118,17 -168,47 -13,-30 -42,-47 -75,-47 -46,0 -84,36 -84,85l0 243c0,0 0,0 0,2l0 372c0,42 30,74 68,84 5,-2 9,0 16,0 33,0 64,-22 78,-51 0,0 0,0 0,0 0,-3 0,-6 0,-8 3,-3 3,-6 5,-9 0,0 0,-3 0,-5 0,-3 1,-8 1,-11l0 0 0 -372c0,-90 73,-162 159,-162 88,0 160,71 162,157 0,2 0,3 0,5l0 372c0,46 41,84 85,84 0,0 0,0 0,0 0,0 0,0 0,0 45,0 83,-38 83,-84l0 -372c0,-2 0,-3 0,-5 3,-86 74,-157 164,-157z"/>
   <path id="1" class="fil10" d="M5258 2257c0,0 0,0 0,0 104,0 198,-45 263,-119 70,-69 110,-167 110,-277l0 0c0,-107 -40,-199 -110,-275 -65,-74 -159,-119 -263,-119 -108,0 -199,45 -270,119 -68,76 -108,168 -108,275 0,110 40,208 108,277 71,74 162,119 270,119zm-151 -559c40,-35 92,-60 151,-60 55,0 106,25 145,60 39,42 61,99 61,163l0 0c0,68 -22,123 -61,167 -39,38 -90,58 -145,58 -59,0 -111,-20 -151,-58 -36,-44 -56,-99 -56,-167 0,-64 20,-121 56,-163z"/>
   <path id="2" class="fil10" d="M6426 1487c-41,-19 -88,3 -105,46l-183 427 -180 -427c-19,-43 -68,-65 -106,-46 -44,19 -64,65 -45,107l254 610c2,5 3,9 7,11 0,1 0,1 1,1 3,4 6,8 8,11 2,2 2,2 3,2 3,5 6,6 10,9 0,0 1,0 1,2 6,3 10,6 14,8 0,0 0,0 3,0 0,0 0,0 0,1 5,0 8,2 13,4 2,0 2,0 3,0 6,0 11,0 14,0 0,0 0,0 0,0 5,1 10,1 16,0 2,0 2,0 3,0 3,-2 8,-4 13,-4 0,-1 0,-1 0,-1 3,0 3,0 3,0 5,-2 8,-5 11,-8 0,-2 1,-2 1,-2 4,-3 7,-4 10,-9 0,0 1,0 1,-2 4,-3 7,-7 10,-11 0,0 1,0 1,-1 2,-2 5,-6 7,-11l257 -610c19,-42 -1,-88 -45,-107z"/>
   <path id="3" class="fil10" d="M6852 1468c-47,0 -85,37 -85,87l0 613c0,47 38,85 85,85 48,0 85,-38 85,-85l0 -613c0,-50 -37,-87 -85,-87zm85 -231c0,-47 -37,-84 -85,-84 -47,0 -85,37 -85,84l0 33c0,48 38,87 85,87 48,0 85,-39 85,-87l0 -33z"/>
   <path id="4" class="fil10" d="M7535 2253c112,0 205,-33 282,-104 36,-33 20,-80 0,-102 -21,-25 -85,-30 -118,4 -40,30 -107,44 -164,40 -55,-5 -118,-33 -151,-71 -28,-27 -45,-68 -53,-104l500 0c44,0 77,-25 81,-63 2,-3 2,-11 2,-14 0,0 0,0 0,0 0,0 0,0 0,0 0,-3 0,-6 0,-8 -13,-212 -174,-364 -379,-364 -215,0 -382,179 -383,393 1,213 168,391 383,393zm0 -637c137,11 217,104 233,167l-445 0c13,-65 79,-161 212,-167z"/>
   <rect class="fil11" x="-13" y="7" width="8356" height="3228"/>
   <rect class="fil12 str0" x="2820" y="842" width="101" height="1873" rx="100" ry="200"/>
  </g>
 </g>
</svg>
