<?xml version="1.0" encoding="UTF-8"?>
<!DOCTYPE svg PUBLIC "-//W3C//DTD SVG 1.1//EN" "http://www.w3.org/Graphics/SVG/1.1/DTD/svg11.dtd">
<!-- Creator: CorelDRAW X7 -->
<svg xmlns="http://www.w3.org/2000/svg" xml:space="preserve" width="18mm" height="28mm" version="1.1" style="shape-rendering:geometricPrecision; text-rendering:geometricPrecision; image-rendering:optimizeQuality; fill-rule:evenodd; clip-rule:evenodd"
viewBox="0 0 1800 2800"
 xmlns:xlink="http://www.w3.org/1999/xlink">
 <defs>
  <style type="text/css">
   <![CDATA[
    .fil1 {fill:#282829}
    .fil9 {fill:#3B393A}
    .fil6 {fill:#5AA5DA}
    .fil7 {fill:#66BD50}
    .fil8 {fill:#E8E8E8}
    .fil4 {fill:#ED3237}
    .fil3 {fill:#F8EC29}
    .fil5 {fill:#FCE243}
    .fil0 {fill:#FDFDFD}
    .fil2 {fill:red}
   ]]>
  </style>
 </defs>
 <g id="Layer_x0020_1">
  <metadata id="CorelCorpID_0Corel-Layer"/>
  <g id="_644082640">
   <path class="fil0" d="M1775 1184l-348 -1 -225 1 -243 0 -239 0 -225 -1 -271 0 -214 0c0,401 0,802 0,1203 0,54 -3,96 8,140 11,42 28,70 54,98l17 17c60,55 109,67 200,67l1202 0c77,0 123,-5 180,-45 107,-75 104,-164 104,-273 0,-402 0,-804 0,-1206z"/>
   <path class="fil1" d="M132 973c44,-15 61,-29 119,-31 48,-1 101,-1 149,1 45,-2 222,-9 250,2l16 -6c11,-19 139,-142 172,-176 22,-21 36,-40 57,-61l354 -349c42,-43 80,-75 84,-152 7,-132 -142,-227 -261,-164 -50,26 -186,179 -236,229l-148 144c-92,85 -229,234 -322,326 -32,32 -223,218 -234,237z"/>
   <path class="fil2" d="M592 2334l591 -375c32,-22 181,-112 196,-127l-588 -376c-29,-19 -182,-121 -199,-124l0 1002z"/>
   <path class="fil0" d="M911 201c4,18 144,300 157,317l165 -164c24,-23 59,-51 75,-90 60,-141 -77,-284 -223,-223 -39,17 -144,126 -174,160z"/>
   <polygon class="fil0" points="487,625 654,933 857,731 696,418 "/>
   <polygon class="fil0" points="10,2780 1783,2780 1783,2741 10,2741 "/>
   <path class="fil3" d="M224 1183l271 0 155 -238c-28,-11 -205,-4 -250,-2 -13,22 -29,39 -45,61 -15,21 -29,40 -43,59 -29,41 -61,79 -88,120z"/>
   <path class="fil4" d="M132 973c-33,15 -64,49 -84,80 -22,33 -38,76 -38,130l214 0c27,-41 59,-79 88,-120 14,-19 28,-38 43,-59 16,-22 32,-39 45,-61 -48,-2 -101,-2 -149,-1 -58,2 -75,16 -119,31z"/>
   <path class="fil5" d="M1088 975c-1,1 -2,1 -2,2 -1,2 -2,2 -2,2 -21,25 -125,194 -127,199l2 6 243 0 153 -242 -232 -1c-25,7 -15,20 -35,34z"/>
   <path class="fil6" d="M650 945l-155 238 225 1c12,-22 27,-42 41,-62 14,-21 27,-39 42,-60 14,-19 79,-107 83,-124l-220 1 -16 6z"/>
   <path class="fil7" d="M1427 1183l348 1c0,-70 -28,-127 -63,-162 -18,-20 -38,-38 -63,-52 -20,-11 -59,-25 -86,-28l-136 241z"/>
   <polygon class="fil4" points="1202,1184 1427,1183 1563,942 1355,942 "/>
   <path class="fil0" d="M957 1178c2,-5 106,-174 127,-199 0,0 1,0 2,-2 0,-1 1,-1 2,-2 6,-13 10,-15 16,-29l-211 0 -119 173c-13,20 -30,39 -40,60l223 -1z"/>
   <path class="fil8" d="M592 2334l0 -1002c-20,9 -15,6 -22,27l-4 13c-6,25 -5,892 2,917 2,11 5,30 13,38 6,6 2,3 11,7z"/>
   <path class="fil9" d="M720 1184l239 0 -2 -6 -223 1c10,-21 27,-40 40,-60l119 -173 211 0c-6,14 -10,16 -16,29 20,-14 10,-27 35,-34 -22,-10 -196,-3 -237,-3 -4,17 -69,105 -83,124 -15,21 -28,39 -42,60 -14,20 -29,40 -41,62z"/>
  </g>
 </g>
</svg>
